# xmcd CD database file
#
# Track frame offsets:
#	150
#	24504
#	41532
#	60187
#	81693
#	103864
#	126746
#	148035
#	169517
#	193260
#	209991
#	230550
#
# Disc length: 3348 seconds
#
# Revision: 0
# Processed by: cddbd v1.4PL0 Copyright (c) Steve Scherf et al.
# Submitted via: CDex 1.40Release
#
DISCID=b90d120c
DTITLE=Loston Harris - Timeless
DYEAR=2003
DGENRE=Blues
TTITLE0=You'd Be So Nice To Come Home To
TTITLE1=If I Say I Love You
TTITLE2=I Just Can't See For Lookin'
TTITLE3=How Deep Is The Ocean
TTITLE4=Anytime, Anyday, Anywhere
TTITLE5=On The Street Where You Live
TTITLE6=Speak Low
TTITLE7=I Didn't Know What Time It Was
TTITLE8=Twilight
TTITLE9=Almost Like Being In Love
TTITLE10=How Little We Know
TTITLE11=I Can't Give You Anything But Love
EXTD=YEAR: 2003 ID3G: 0
EXTT0=
EXTT1=
EXTT2=
EXTT3=
EXTT4=
EXTT5=
EXTT6=
EXTT7=
EXTT8=
EXTT9=
EXTT10=
EXTT11=
PLAYORDER=
